# xmcd CD database file
#
# Track frame offsets:
#	150
#	6220
#	27192
#	45437
#	63310
#	85390
#	106977
#	111067
#	128990
#	149085
#	160897
#	176057
#	199417
#
# Disc length: 2946 seconds
#
# Revision: 1
# Processed by: cddbd v1.5.2PL0 Copyright (c) Steve Scherf et al.
# Submitted via: CDex 1.70beta2
#
DISCID=b50b800d
DTITLE=GURU - Jazzmatazz
DYEAR=1993
DGENRE=Hip-Hop
TTITLE0=Introduction
TTITLE1=Loungin'
TTITLE2=When You're Near
TTITLE3=Transit Ride
TTITLE4=No Time To Play
TTITLE5=Down The Backstreets
TTITLE6=Respectful Dedications
TTITLE7=Take A Look(At Yourself)
TTITLE8=Trust Me
TTITLE9=Slicker Than Most
TTITLE10=Le Bien, Le Mal
TTITLE11=Sights In The City
TTITLE12=Jazz Thing
EXTD=YEAR: 1993
EXTT0=
EXTT1=
EXTT2=
EXTT3=
EXTT4=
EXTT5=
EXTT6=
EXTT7=
EXTT8=
EXTT9=
EXTT10=
EXTT11=
EXTT12=
PLAYORDER=
